<svg width="39" height="40" viewBox="0 0 39 40" fill="none" xmlns="http://www.w3.org/2000/svg">
<g clip-path="url(#clip0)">
<path d="M8.10936 26.6667C11.2691 31.675 18.1632 33.9009 23.6431 31.6973C29.123 29.4936 32.57 23.0829 31.421 17.251C30.5592 12.8436 27.2448 9.01503 23.0465 7.47914C18.5167 5.80969 12.1309 6.58877 9.34675 10.8626C6.20908 15.6261 4.8833 21.5693 8.10936 26.6667Z" fill="#1D957F"/>
<path d="M31.421 17.2732C30.8023 14.1347 28.9462 11.2855 26.4051 9.34891C26.8912 10.3506 27.2669 11.419 27.4878 12.5097C28.6368 18.3417 25.1898 24.7524 19.7099 26.956C15.6663 28.581 10.8714 27.8019 7.35809 25.2643C7.57906 25.754 7.84421 26.2215 8.13146 26.6889C11.2912 31.6973 18.1853 33.9232 23.6652 31.7195C29.1009 29.4936 32.5479 23.1052 31.421 17.2732Z" fill="#25602E"/>
<path d="M23.5105 9.8386C25.4992 11.3522 29.2776 4.11795 29.2776 4.11795L30.6255 5.14188C30.6255 5.14188 24.7921 10.818 26.8029 12.3316" fill="#1D957F"/>
<path d="M31.4209 5.52028C31.8408 3.67276 28.6589 1.89202 28.2391 3.91761C27.8413 5.87643 30.9348 7.65718 31.4209 5.52028Z" fill="#1D957F"/>
<path d="M29.8963 3.606C29.5428 3.09404 28.3938 3.47245 28.7915 4.02893C29.1893 4.56315 30.2941 4.18475 29.8963 3.606Z" fill="#25602E"/>
<path d="M31.2884 4.42959C31.2884 4.54089 31.2663 4.65219 31.2442 4.76348C30.8464 6.45519 28.8357 5.67612 28.217 4.3183C28.2612 6.09904 30.979 7.52364 31.4209 5.5203C31.5093 5.14189 31.443 4.76348 31.2884 4.42959Z" fill="#25602E"/>
<path d="M29.9405 18.8536C29.7196 21.3689 37.8068 20.7679 37.8068 20.7679L37.6521 22.4596C37.6521 22.4596 29.7858 20.4786 29.5649 22.9939" fill="#25602E"/>
<path d="M37.7626 23.35C39.5303 22.749 39.3757 19.0762 37.4312 19.7885C35.5751 20.4786 35.7077 24.0623 37.7626 23.35Z" fill="#25602E"/>
<path d="M38.5581 21.0128C38.8012 20.434 37.8731 19.6772 37.608 20.3005C37.387 20.9237 38.2708 21.6806 38.5581 21.0128Z" fill="#1D957F"/>
<path d="M38.6023 22.66C38.5139 22.7268 38.4034 22.7713 38.2929 22.7935C36.6578 23.35 36.238 21.2131 37.0776 19.9666C35.5972 20.946 35.8402 24.0178 37.7626 23.35C38.1162 23.2165 38.4034 22.9716 38.6023 22.66Z" fill="#1D957F"/>
<path d="M26.3167 27.4902C24.549 28.3361 28.1949 33.5893 28.1949 33.5893L27.0017 34.168C27.0017 34.168 25.1677 28.0467 23.4 28.9148" fill="#25602E"/>
<path d="M26.4714 34.591C27.5983 35.5481 29.9626 33.9677 28.7252 32.9438C27.5099 31.9421 25.1677 33.478 26.4714 34.591Z" fill="#25602E"/>
<path d="M28.3496 34.1903C28.8357 34.1236 28.9683 33.1887 28.438 33.2777C27.9297 33.3445 27.7972 34.2571 28.3496 34.1903Z" fill="#1D957F"/>
<path d="M27.2668 34.8803C27.2006 34.8358 27.1122 34.7913 27.0459 34.7245C26.0074 33.8564 27.2668 32.6989 28.438 32.7657C27.1785 32.1424 25.234 33.5448 26.4493 34.591C26.6923 34.769 26.9796 34.8581 27.2668 34.8803Z" fill="#1D957F"/>
<path d="M21.6323 30.6288C19.1354 30.6956 20.638 38.7312 20.638 38.7312L18.9587 38.7757C18.9587 38.7757 19.9972 30.6733 17.5003 30.7624" fill="#25602E"/>
<path d="M18.0969 38.9761C18.9144 40.6901 22.5161 40.0891 21.566 38.2415C20.6821 36.4608 17.1688 36.995 18.0969 38.9761Z" fill="#25602E"/>
<path d="M18.8923 39.7551C18.826 39.6661 18.7598 39.5771 18.7156 39.4658C17.9643 37.9076 20.0413 37.2176 21.3671 37.9076C20.2181 36.5276 17.2351 37.1286 18.0969 38.9761C18.2736 39.3322 18.5609 39.5771 18.8923 39.7551Z" fill="#1D957F"/>
<path d="M13.6113 9.50474C15.9315 8.54759 11.6669 1.58043 11.6669 1.58043L13.2136 0.934906C13.2136 0.934906 15.1139 8.88148 17.4119 7.90207" fill="#1D957F"/>
<path d="M13.9649 0.445181C12.5949 -0.868119 9.45722 0.979405 10.9598 2.38174C12.4402 3.73956 15.5337 1.95881 13.9649 0.445181Z" fill="#1D957F"/>
<path d="M11.5343 0.801331C10.9156 0.84585 10.6725 2.02559 11.3354 1.95882C11.9983 1.9143 12.2414 0.756812 11.5343 0.801331Z" fill="#25602E"/>
<path d="M12.9484 0C13.0368 0.066778 13.1252 0.133556 13.2136 0.222593C14.4731 1.4246 12.7717 2.78242 11.2912 2.6266C12.8379 3.49471 15.4232 1.86978 13.9649 0.445187C13.6776 0.178075 13.3241 0.0445187 12.9484 0Z" fill="#25602E"/>
<path d="M8.264 18.0078C9.10366 15.6261 1.12689 14.2015 1.12689 14.2015L1.6793 12.5988C1.6793 12.5988 8.83851 16.4719 9.63398 14.0679" fill="#1D957F"/>
<path d="M1.78981 11.7084C-0.0883797 11.8642 -0.817558 15.4702 1.2374 15.2476C3.20397 15.0473 3.95525 11.5303 1.78981 11.7084Z" fill="#1D957F"/>
<path d="M0.441923 13.7785C0.0662853 14.2682 0.773367 15.2476 1.1711 14.6911C1.56883 14.1569 0.883849 13.1998 0.441923 13.7785Z" fill="#25602E"/>
<path d="M0.795471 12.1759C0.905953 12.1536 1.01643 12.1313 1.12692 12.1091C2.85043 11.9755 2.73995 14.1347 1.63513 15.1586C3.31445 14.5799 3.82267 11.5526 1.8119 11.7084C1.39207 11.7529 1.06063 11.931 0.795471 12.1759Z" fill="#25602E"/>
<path d="M12.1751 28.1358C10.7167 26.0879 4.99379 31.8754 4.99379 31.8754L3.99945 30.4953C3.99945 30.4953 11.2249 26.778 9.74449 24.7524" fill="#25602E"/>
<path d="M3.35864 29.9165C2.4085 31.5637 4.92748 34.2126 5.92181 32.3873C6.87195 30.6288 4.44136 28.0245 3.35864 29.9165Z" fill="#25602E"/>
<path d="M4.26461 32.2092C4.46348 32.8102 5.65668 32.7657 5.43572 32.1202C5.21475 31.4969 4.04365 31.5192 4.26461 32.2092Z" fill="#1D957F"/>
<path d="M3.1598 31.0072C3.1819 30.8959 3.22609 30.8069 3.29238 30.6956C4.15413 29.182 5.87765 30.5175 6.05442 32.0311C6.54054 30.3172 4.353 28.158 3.33657 29.9165C3.1598 30.2504 3.11561 30.6288 3.1598 31.0072Z" fill="#1D957F"/>
<path d="M19.4227 8.10238C21.2788 8.5253 21.6323 2.29269 21.6323 2.29269L22.8918 2.55981C22.8918 2.55981 20.638 8.36949 22.4941 8.77016" fill="#1D957F"/>
<path d="M23.5768 2.58207C23.2895 1.15747 20.5275 0.93488 20.8589 2.47077C21.2125 3.98441 23.9082 4.22926 23.5768 2.58207Z" fill="#1D957F"/>
<path d="M21.8975 1.73622C21.4997 1.49137 20.8148 2.13689 21.2788 2.38174C21.7207 2.6266 22.3836 2.02559 21.8975 1.73622Z" fill="#25602E"/>
<path d="M23.1349 1.86978C23.179 1.93656 23.2011 2.0256 23.2232 2.11463C23.4884 3.40567 21.8312 3.51697 20.9694 2.76015C21.566 3.98442 23.8861 4.09571 23.5768 2.58208C23.5326 2.29271 23.3558 2.04786 23.1349 1.86978Z" fill="#25602E"/>
<path d="M28.1286 13.8453C29.1671 15.4479 33.7411 11.2409 33.7411 11.2409L34.4481 12.3316C34.4481 12.3316 28.8136 14.9137 29.8742 16.5164" fill="#25602E"/>
<path d="M34.9343 12.7991C35.7076 11.5748 33.8736 9.46019 33.0561 10.818C32.2606 12.1313 34.0283 14.2014 34.9343 12.7991Z" fill="#25602E"/>
<path d="M34.3156 11.0184C34.183 10.5509 33.2771 10.5509 33.4096 11.0406C33.5643 11.5303 34.4703 11.5526 34.3156 11.0184Z" fill="#1D957F"/>
<path d="M35.111 11.9755C35.0889 12.0646 35.0447 12.1313 35.0005 12.1981C34.2935 13.3111 33.034 12.2426 32.9456 11.0851C32.5258 12.3762 34.1167 14.0902 34.9343 12.7769C35.0889 12.5543 35.1331 12.2649 35.111 11.9755Z" fill="#1D957F"/>
<path d="M16.4617 30.7624C14.8929 29.6717 12.2634 35.3255 12.2634 35.3255L11.2028 34.591C11.2028 34.591 15.4453 30.0501 13.8544 28.9816" fill="#25602E"/>
<path d="M10.5841 34.3239C10.319 35.7485 12.8159 36.995 13.0589 35.4368C13.302 33.9232 10.8714 32.6767 10.5841 34.3239Z" fill="#25602E"/>
<path d="M11.8215 35.7262C12.1088 36.1046 12.9706 35.7707 12.6391 35.3701C12.3298 34.9694 11.4901 35.3033 11.8215 35.7262Z" fill="#1D957F"/>
<path d="M10.7167 35.1475C10.7167 35.0584 10.7167 34.9694 10.7388 34.9026C10.9819 33.5893 12.5507 34.1013 13.0589 35.1252C12.9705 33.7674 10.8493 32.788 10.562 34.3239C10.5178 34.6132 10.5841 34.9026 10.7167 35.1475Z" fill="#1D957F"/>
<path d="M28.9904 25.0417C28.1728 26.7779 34.1167 28.5142 34.1167 28.5142L33.5643 29.6939C33.5643 29.6939 28.4601 26.1769 27.6425 27.9132" fill="#25602E"/>
<path d="M33.4096 30.3617C34.8459 30.4062 35.6856 27.7351 34.1167 27.7129C32.5921 27.7129 31.7524 30.3172 33.4096 30.3617Z" fill="#25602E"/>
<path d="M34.6028 28.8926C34.9343 28.5365 34.4702 27.7574 34.1167 28.1358C33.7632 28.5142 34.2051 29.2933 34.6028 28.8926Z" fill="#1D957F"/>
<path d="M34.2051 30.0723C34.1167 30.0946 34.0283 30.0946 33.962 30.0946C32.6363 30.0501 32.9014 28.4251 33.8295 27.7351C32.5037 28.0467 31.885 30.2949 33.4317 30.3394C33.6969 30.3617 33.962 30.2504 34.2051 30.0723Z" fill="#1D957F"/>
<path d="M9.50143 12.7991C10.8272 11.4191 5.74506 7.85756 5.74506 7.85756L6.62891 6.92267C6.62891 6.92267 10.3632 11.9088 11.689 10.5064" fill="#1D957F"/>
<path d="M7.00454 6.3439C5.65666 5.8542 3.99944 8.10239 5.50199 8.61435C6.93825 9.10406 8.55128 6.92264 7.00454 6.3439Z" fill="#1D957F"/>
<path d="M5.4136 7.34557C4.99377 7.56817 5.17054 8.4808 5.63456 8.21369C6.05439 7.96883 5.89971 7.07846 5.4136 7.34557Z" fill="#25602E"/>
<path d="M6.16488 6.34388C6.25327 6.34388 6.31956 6.36614 6.40794 6.41066C7.64534 6.85584 6.87197 8.34722 5.78925 8.68111C7.13712 8.81466 8.4629 6.8781 7.00454 6.34388C6.71729 6.23258 6.43004 6.25484 6.16488 6.34388Z" fill="#25602E"/>
<path d="M8.5513 23.7284C8.30824 21.8141 2.36433 23.5726 2.36433 23.5726L2.20966 22.2816C2.20966 22.2816 8.39663 22.4819 8.15357 20.5676" fill="#1D957F"/>
<path d="M2.01076 21.6583C0.773367 22.4151 1.50255 25.1085 2.82832 24.2627C4.10991 23.4391 3.42493 20.7902 2.01076 21.6583Z" fill="#1D957F"/>
<path d="M1.76772 23.5281C1.67933 23.9955 2.4969 24.4185 2.58528 23.9065C2.67367 23.3945 1.8782 22.9939 1.76772 23.5281Z" fill="#25602E"/>
<path d="M1.48047 22.3038C1.54676 22.237 1.61305 22.1925 1.67934 22.148C2.80625 21.458 3.46914 22.9938 3.04931 24.0623C3.99945 23.0829 3.31446 20.8347 1.98868 21.636C1.74562 21.8141 1.59095 22.0367 1.48047 22.3038Z" fill="#25602E"/>
<path d="M11.2691 14.246C11.026 14.2014 10.783 14.1569 10.5399 14.246C10.2969 14.335 10.1422 14.5576 10.0538 14.8247C9.98752 15.0696 9.98752 15.3367 10.0317 15.5815C10.2085 16.5387 10.9156 17.4068 11.8215 17.7184C12.7717 18.0746 14.2079 17.4513 13.8323 16.227C13.545 15.2476 12.2193 14.4685 11.2691 14.246Z" fill="#25602E"/>
<path d="M25.2782 19.6105C25.4329 19.3211 25.5434 18.9872 25.5213 18.6756C25.4771 18.3417 25.2561 18.03 24.9688 17.852C24.6816 17.6739 24.3281 17.5849 23.9966 17.5626C22.6929 17.4513 21.3672 18.0746 20.638 19.1653C19.8646 20.3005 20.1739 22.3706 21.8533 22.2816C23.2453 22.2148 24.6816 20.7679 25.2782 19.6105Z" fill="#25602E"/>
<path d="M12.1088 20.9683C11.7331 20.8792 11.3575 20.8124 11.004 20.946C10.6283 21.0796 10.3632 21.4135 10.2306 21.7919C10.098 22.1703 10.098 22.5709 10.1422 22.9716C10.3411 24.4852 11.4017 25.8431 12.7938 26.4218C14.2521 27.0228 16.506 26.1547 15.9977 24.2404C15.5558 22.6377 13.5671 21.3689 12.1088 20.9683Z" fill="#25602E"/>
<path d="M15.0697 18.8759C14.915 19.0095 14.7603 19.1653 14.6941 19.3434C14.6278 19.5437 14.6941 19.7885 14.8045 19.9666C14.915 20.1447 15.0918 20.2782 15.2907 20.3895C15.9977 20.7902 16.9258 20.768 17.6108 20.345C18.3399 19.8998 18.6935 18.6311 17.6992 18.2526C16.8816 17.9188 15.6884 18.3639 15.0697 18.8759Z" fill="#25602E"/>
<path d="M17.6549 25.3756C17.677 25.5537 17.7433 25.754 17.8538 25.8876C17.9864 26.0211 18.1852 26.0879 18.3841 26.0657C18.583 26.0434 18.7597 25.9766 18.9365 25.8653C19.5773 25.4647 19.975 24.7301 19.9529 23.9733C19.9308 23.1942 19.0912 22.3484 18.3399 22.9494C17.7212 23.4836 17.5445 24.6411 17.6549 25.3756Z" fill="#25602E"/>
<path d="M16.2187 9.88315C15.7326 9.97218 15.2465 10.128 14.915 10.5287C14.5615 10.9293 14.451 11.5526 14.5394 12.1313C14.6278 12.7101 14.8708 13.2666 15.1802 13.7563C16.3513 15.6483 18.4062 16.8281 20.3728 16.739C22.4278 16.65 24.4827 14.1124 22.715 11.8642C21.2346 10.039 18.1632 9.527 16.2187 9.88315Z" fill="#25602E"/>
<path d="M9.47931 26.5109C10.1422 26.8225 10.8493 27.0896 11.5564 27.2899L9.74446 24.7746C10.1201 25.2866 9.94333 25.8876 9.47931 26.5109Z" fill="#1D957F"/>
<path d="M26.9134 9.77185C26.7587 10.217 26.5598 10.64 26.4935 11.0852C26.4494 11.3077 26.4494 11.5303 26.4714 11.7529C26.4935 11.8642 26.5377 11.9755 26.5819 12.0646C26.6261 12.1536 26.7145 12.2426 26.8029 12.3317C26.6924 12.2649 26.604 12.1981 26.5377 12.1091C26.4714 12.02 26.4052 11.9087 26.361 11.7752C26.3168 11.6639 26.3168 11.5303 26.3168 11.419C26.3168 11.3077 26.3168 11.1742 26.3389 11.0629C26.3831 10.818 26.4494 10.5954 26.5598 10.3951C26.6703 10.1725 26.7808 9.97218 26.9134 9.77185Z" fill="#25602E"/>
<path d="M23.5105 9.83864C23.7094 9.94994 23.9303 10.0167 24.1513 9.99446C24.3723 9.9722 24.5932 9.90542 24.7921 9.79412C24.9909 9.68282 25.1898 9.57153 25.3666 9.43797C25.5434 9.28216 25.7201 9.1486 25.919 9.01505C25.7643 9.19312 25.6096 9.37119 25.4329 9.52701C25.2561 9.68282 25.0572 9.81638 24.8584 9.92768C24.6374 10.039 24.4164 10.1058 24.1734 10.1058C24.0408 10.1058 23.9303 10.0835 23.8198 10.039C23.6873 9.99445 23.5989 9.92768 23.5105 9.83864Z" fill="#25602E"/>
<path d="M31.421 21.7696C31.2221 21.8141 31.0233 21.8809 30.8465 21.9254C30.6476 21.9922 30.4709 22.0367 30.2941 22.1258C30.1173 22.2148 29.9626 22.3261 29.8301 22.4597C29.6975 22.5932 29.6091 22.7713 29.5649 22.9716C29.5428 22.7713 29.6091 22.5487 29.7417 22.3706C29.8743 22.1925 30.051 22.059 30.2278 21.97C30.6034 21.8364 31.0233 21.7696 31.421 21.7696Z" fill="#25602E"/>
<path d="M29.9406 18.8536C29.9406 19.0762 30.0068 19.2543 30.1173 19.4324C30.2278 19.5882 30.3825 19.744 30.5372 19.8553C30.6918 19.9666 30.8907 20.0779 31.0675 20.1669C31.2442 20.256 31.4431 20.345 31.642 20.434C31.4431 20.4118 31.2221 20.3673 31.0233 20.2782C30.8244 20.2115 30.6255 20.1224 30.4488 19.9889C30.272 19.8553 30.1173 19.6995 30.0068 19.4992C29.9185 19.2988 29.8964 19.054 29.9406 18.8536Z" fill="#25602E"/>
<path d="M15.5779 6.96716C15.8431 7.23427 16.0862 7.52365 16.3955 7.72398C16.5502 7.83528 16.7049 7.90205 16.8816 7.94657C17.0584 7.99109 17.2352 7.99109 17.4119 7.92431C17.2573 8.03561 17.0584 8.08013 16.8595 8.05787C16.6607 8.03561 16.4839 7.94657 16.3071 7.85753C15.9978 7.61268 15.7547 7.30105 15.5779 6.96716Z" fill="#25602E"/>
<path d="M13.6113 9.50473C13.7881 9.39343 13.9428 9.25988 14.0312 9.0818C14.1195 8.90373 14.1858 8.72565 14.2079 8.52532C14.23 8.32498 14.23 8.12465 14.23 7.92432C14.23 7.72398 14.2079 7.52365 14.2079 7.30106C14.3405 7.70172 14.4068 8.10239 14.3626 8.54758C14.3405 8.74791 14.2742 8.9705 14.1416 9.14858C14.0091 9.32665 13.8102 9.46021 13.6113 9.50473Z" fill="#25602E"/>
<path d="M7.3139 14.7802C7.53487 14.7802 7.75583 14.8025 7.97679 14.8025C8.19776 14.8025 8.41872 14.8025 8.61759 14.7579C8.81645 14.7357 9.03742 14.6689 9.21419 14.5576C9.39096 14.4463 9.54563 14.2905 9.63402 14.0901C9.58983 14.3127 9.45725 14.5131 9.28048 14.6466C9.10371 14.7802 8.86065 14.8692 8.63968 14.8915C8.41872 14.936 8.19776 14.936 7.97679 14.9137C7.75583 14.8915 7.53487 14.847 7.3139 14.7802Z" fill="#25602E"/>
<path d="M8.26408 18.0078C8.30827 17.7852 8.28618 17.5626 8.21989 17.3846C8.1536 17.1842 8.02102 17.0061 7.88844 16.8503C7.75586 16.6945 7.57909 16.561 7.40232 16.4274C7.22555 16.2938 7.04878 16.1603 6.87201 16.0267C7.07088 16.1158 7.26974 16.2048 7.46861 16.3384C7.66748 16.4497 7.82215 16.6055 7.97683 16.7613C8.1315 16.9394 8.26408 17.1174 8.30827 17.3623C8.39666 17.5626 8.37456 17.8075 8.26408 18.0078Z" fill="#25602E"/>
<path d="M12.1751 28.1358C11.9984 27.9355 11.7774 27.8242 11.5343 27.7796C11.2913 27.7351 11.0482 27.7796 10.8052 27.8242C10.319 27.9355 9.85501 28.1358 9.39099 28.3361C9.81082 28.0468 10.2748 27.8019 10.7831 27.6683C11.0261 27.6238 11.3134 27.5793 11.5785 27.6461C11.8216 27.7351 12.0646 27.9132 12.1751 28.1358Z" fill="#25602E"/>
<path d="M21.787 7.12299C21.8312 7.45688 21.8533 7.79077 21.9417 8.08014C21.9859 8.23595 22.0521 8.36951 22.1405 8.50306C22.2289 8.63662 22.3615 8.72566 22.5162 8.79243C22.3394 8.79243 22.1847 8.7034 22.0521 8.5921C21.9196 8.45854 21.8533 8.30273 21.787 8.14691C21.7428 7.96884 21.7207 7.81302 21.7207 7.63495C21.7207 7.43462 21.7428 7.2788 21.787 7.12299Z" fill="#25602E"/>
<path d="M19.4227 8.1024C19.5773 8.1024 19.732 8.08014 19.8646 8.01336C19.9972 7.94658 20.1077 7.83529 20.2181 7.72399C20.417 7.5014 20.5717 7.21203 20.7705 6.94492C20.7264 7.10073 20.6822 7.25655 20.6159 7.41236C20.5496 7.56818 20.4612 7.70173 20.3507 7.83529C20.2402 7.96884 20.1077 8.08014 19.9309 8.12466C19.7541 8.16918 19.5773 8.16918 19.4227 8.1024Z" fill="#25602E"/>
<path d="M30.6034 14.6912C30.3825 14.9805 30.1615 15.2254 29.9847 15.537C29.8964 15.6928 29.8301 15.8486 29.808 16.0045C29.7859 16.1603 29.808 16.3384 29.8743 16.4942C29.7417 16.3606 29.6754 16.1825 29.6975 15.9822C29.6975 15.7819 29.7638 15.6038 29.8522 15.448C29.9405 15.2922 30.051 15.1363 30.1836 15.0251C30.3162 14.8915 30.4488 14.7802 30.6034 14.6912Z" fill="#25602E"/>
<path d="M28.1287 13.8453C28.2612 13.9789 28.4159 14.0679 28.5927 14.1124C28.7695 14.157 28.9462 14.1347 29.123 14.1124C29.4765 14.0679 29.8301 13.9344 30.1836 13.8231C29.8743 14.0457 29.5207 14.2015 29.1451 14.2682C28.9462 14.2905 28.7474 14.2905 28.5706 14.2237C28.3717 14.157 28.217 14.0234 28.1287 13.8453Z" fill="#25602E"/>
<path d="M13.6334 31.3634C13.7881 30.9405 13.987 30.5621 14.0753 30.1392C14.1195 29.9388 14.1637 29.7162 14.1416 29.5159C14.1195 29.3156 14.0312 29.1152 13.8544 28.9594C14.0533 29.0484 14.2079 29.271 14.2521 29.4936C14.2963 29.7162 14.2742 29.9611 14.2079 30.1837C14.0974 30.6289 13.8986 31.0073 13.6334 31.3634Z" fill="#25602E"/>
<path d="M16.4618 30.7624C16.285 30.6733 16.0862 30.6511 15.8873 30.6956C15.7105 30.7401 15.5338 30.8292 15.357 30.9405C15.0256 31.163 14.7383 31.4524 14.429 31.7195C14.6499 31.3634 14.9151 31.0518 15.2686 30.8069C15.4454 30.6956 15.6443 30.5843 15.8652 30.5621C16.0862 30.5398 16.3071 30.6066 16.4618 30.7624Z" fill="#25602E"/>
<path d="M25.6097 30.6734C25.3224 30.2504 25.0351 29.8275 24.7037 29.4491C24.5269 29.271 24.3502 29.093 24.1292 28.9817C23.9082 28.8704 23.6652 28.8258 23.4221 28.9149C23.5326 28.8481 23.6652 28.8036 23.7978 28.8036C23.864 28.8036 23.9303 28.8036 23.9966 28.8258C24.0629 28.8481 24.1292 28.8704 24.1955 28.8926C24.4385 29.0039 24.6374 29.182 24.8142 29.3823C25.1677 29.7385 25.4108 30.2059 25.6097 30.6734Z" fill="#25602E"/>
<path d="M26.3167 27.4903C26.1179 27.6238 25.9853 27.8464 25.9411 28.069C25.8969 28.2916 25.919 28.5365 25.9411 28.7813C26.0074 29.2488 26.1621 29.7162 26.2946 30.2059C26.0516 29.783 25.8748 29.3155 25.7864 28.8036C25.7422 28.5587 25.7422 28.2916 25.8085 28.0467C25.8969 27.7796 26.0958 27.557 26.3167 27.4903Z" fill="#25602E"/>
<path d="M18.9587 32.5876C18.8924 32.3873 18.804 32.187 18.7377 31.9866C18.6493 31.7863 18.583 31.6082 18.4725 31.4302C18.3621 31.2521 18.2295 31.0963 18.0748 30.985C17.9201 30.8737 17.7213 30.7846 17.5003 30.7624C17.6992 30.7179 17.9422 30.7624 18.119 30.8737C18.3179 30.985 18.4504 31.163 18.583 31.3411C18.804 31.7195 18.9145 32.1647 18.9587 32.5876Z" fill="#25602E"/>
<path d="M21.6323 30.6288C21.4334 30.6734 21.2346 30.7401 21.0799 30.8737C20.9252 31.0072 20.8147 31.1631 20.7263 31.3411C20.638 31.5192 20.5496 31.7195 20.4833 31.8976C20.417 32.098 20.3507 32.2983 20.2844 32.4986C20.2844 32.2983 20.3065 32.0757 20.3507 31.8754C20.3949 31.675 20.4612 31.4747 20.5717 31.2744C20.6822 31.074 20.8147 30.8959 20.9915 30.7846C21.1904 30.6511 21.4334 30.6066 21.6323 30.6288Z" fill="#25602E"/>
<path d="M28.9683 27.468C28.7031 27.4903 28.4601 27.4903 28.2391 27.5348C28.1286 27.557 28.0182 27.6016 27.9077 27.6683C27.7972 27.7351 27.7088 27.8242 27.6425 27.9132C27.6646 27.7796 27.7309 27.6683 27.8414 27.5793C27.9519 27.4903 28.0623 27.4235 28.1949 27.4012C28.3275 27.379 28.4601 27.3567 28.5927 27.379C28.7252 27.379 28.8578 27.4235 28.9683 27.468Z" fill="#25602E"/>
<path d="M28.9904 25.0417C28.9462 25.1753 28.9462 25.3311 28.9683 25.4424C28.9904 25.5759 29.0346 25.6872 29.123 25.8208C29.2556 26.0657 29.4544 26.266 29.6312 26.4886C29.4986 26.4218 29.3882 26.3328 29.2777 26.2437C29.1672 26.1547 29.0788 26.0434 28.9904 25.9098C28.9241 25.7763 28.8578 25.6205 28.8578 25.4869C28.8578 25.3088 28.902 25.153 28.9904 25.0417Z" fill="#25602E"/>
<path d="M9.81079 10.217C10.1201 10.3506 10.4295 10.5286 10.7388 10.6177C10.8935 10.6622 11.0482 10.6845 11.225 10.6845C11.3796 10.6622 11.5343 10.6177 11.689 10.5064C11.6006 10.6622 11.4238 10.7512 11.2471 10.7958C11.0703 10.8403 10.8714 10.818 10.7167 10.7512C10.54 10.7067 10.3853 10.6177 10.2306 10.5286C10.0759 10.4396 9.94337 10.3283 9.81079 10.217Z" fill="#25602E"/>
<path d="M9.50142 12.7991C9.58981 12.6656 9.634 12.5098 9.6561 12.3762C9.67819 12.2204 9.6561 12.0868 9.6119 11.931C9.52352 11.6416 9.36884 11.3523 9.23627 11.0629C9.34675 11.1742 9.45723 11.3077 9.54562 11.4413C9.634 11.5749 9.70029 11.7307 9.74448 11.8865C9.78867 12.0423 9.81077 12.2204 9.76658 12.3985C9.72239 12.5543 9.634 12.6878 9.50142 12.7991Z" fill="#25602E"/>
<path d="M6.36377 21.97C6.73941 21.8141 7.13714 21.6806 7.49068 21.5025C7.66745 21.4135 7.82213 21.3022 7.95471 21.1464C8.08728 20.9905 8.15357 20.8125 8.15357 20.5899C8.21986 20.7902 8.17567 21.0351 8.04309 21.2131C7.91051 21.3912 7.73374 21.5248 7.55697 21.6361C7.20343 21.8364 6.7836 21.9254 6.36377 21.97Z" fill="#25602E"/>
<path d="M8.55227 23.7284C8.50808 23.5281 8.3755 23.3723 8.22083 23.261C8.06615 23.1497 7.88938 23.0829 7.69052 23.0384C7.31488 22.9271 6.91714 22.9048 6.49731 22.8603C6.89505 22.7936 7.31488 22.7936 7.71261 22.9049C7.91148 22.9716 8.11035 23.0384 8.26502 23.1942C8.46389 23.3055 8.57437 23.5281 8.55227 23.7284Z" fill="#25602E"/>
<path d="M8.57343 27.4903C8.92697 27.0896 9.30261 26.6889 9.56776 26.2437C9.70034 26.0211 9.81082 25.7763 9.87711 25.5314C9.9213 25.2866 9.87711 25.0195 9.74453 24.7746C9.9213 24.975 10.0318 25.2643 9.98759 25.5537C9.9655 25.8431 9.83292 26.0879 9.70034 26.3328C9.41309 26.778 9.01535 27.1564 8.57343 27.4903Z" fill="#25602E"/>
<path d="M20.5054 39.5103C21.102 39.6884 21.7428 38.6644 21.102 38.4864C20.4612 38.3083 19.8204 39.31 20.5054 39.5103Z" fill="#1D957F"/>
</g>
<defs>
<clipPath id="clip0">
<rect width="39" height="40" fill="white"/>
</clipPath>
</defs>
</svg>
